<?xml version="1.0" encoding="utf-8"?>
<!-- Generator: Adobe Illustrator 18.1.1, SVG Export Plug-In . SVG Version: 6.00 Build 0)  -->
<svg version="1.1" id="Layer_1" xmlns="http://www.w3.org/2000/svg" xmlns:xlink="http://www.w3.org/1999/xlink" x="0px" y="0px"
	 width="2816px" height="1792px" viewBox="64 -448 2816 1792" enable-background="new 64 -448 2816 1792" xml:space="preserve">
<path d="M2710.1-448.1H234c-93.5,0-170,76.5-170,170v1452.1c0,93.5,76.5,170,170,170h2476.1c93.5,0,170-76.5,170-165V-273.1
	C2880.1-371.6,2803.6-448.1,2710.1-448.1z M1209.6,716.7c63.7,63.7,63.7,166.9,0,230.5c-63.7,63.7-167,63.7-230.7,0L595.7,564.3
	c-0.4-0.4-1-0.5-1.3-0.8c-32-32-47.8-73.7-47.8-115.5c0-41.8,15.8-83.5,47.8-115.5c0.3-0.3,0.8-0.4,1.3-0.9L978.9-51.3
	c63.7-63.7,167-63.7,230.7,0c63.7,63.7,63.7,166.8,0,230.5L940.7,448L1209.6,716.7z M2349.5,563.5c-0.3,0.3-0.8,0.4-1.3,0.8
	l-383.2,382.9c-63.7,63.7-167,63.7-230.7,0c-63.7-63.7-63.7-166.8,0-230.5L2003.3,448l-268.9-268.7c-63.7-63.7-63.7-166.8,0-230.5
	c63.7-63.7,167-63.7,230.7,0l383.2,382.9c0.4,0.4,0.9,0.5,1.3,0.9c32,31.9,47.8,73.7,47.8,115.5
	C2397.3,489.8,2381.5,531.5,2349.5,563.5z"/>
</svg>
