<?xml version="1.0" encoding="utf-8"?>
<!-- Generator: Adobe Illustrator 18.1.1, SVG Export Plug-In . SVG Version: 6.00 Build 0)  -->
<svg version="1.1" id="Layer_1" xmlns="http://www.w3.org/2000/svg" xmlns:xlink="http://www.w3.org/1999/xlink" x="0px" y="0px"
	 width="2816px" height="1792px" viewBox="64 -448 2816 1792" enable-background="new 64 -448 2816 1792" xml:space="preserve">
<g id="Guides">
</g>
<g id="Glyphs">
	<path d="M2689.6-448.1H254.2c-105.1,0-190.3,81.9-190.3,182.9v1426.3c0,101,85.2,182.9,190.3,182.9h2435.5
		c105.1,0,190.3-81.9,190.3-182.9V-265.2C2879.9-366.2,2794.8-448.1,2689.6-448.1z M983.7,1219c0,0-692.4,0-744.1,0
		c-37.3,0-50-24.1-50-50c0-4.2,0-78,0-78h794.1V1219z M983.7,998.2H189.6v-128h794.1V998.2z M983.7,777.5H189.6v-128h794.1V777.5z
		 M983.7,556.8H189.6v-128h794.1V556.8z M983.7,336H189.6V208h794.1V336z M1871.7,1219h-791.1v-128h791.1V1219z M1871.7,998.2
		h-791.1v-128h791.1V998.2z M1871.7,777.5h-791.1v-128h791.1V777.5z M1871.7,556.8h-791.1v-128h791.1V556.8z M1871.7,336h-791.1V208
		h791.1V336z M2754.6,1169c0,39-12.1,50-50,50c-37.1,0-739.1,0-739.1,0v-128h789.1C2754.6,1091,2754.6,1151.7,2754.6,1169z
		 M2754.6,998.2h-789.1v-128h789.1V998.2z M2754.6,777.5h-789.1v-128h789.1V777.5z M2754.6,556.8h-789.1v-128h789.1V556.8z
		 M2754.6,336h-789.1V208h789.1V336z"/>
</g>
</svg>
