<?xml version="1.0" encoding="utf-8"?>
<!-- Generator: Adobe Illustrator 18.1.1, SVG Export Plug-In . SVG Version: 6.00 Build 0)  -->
<svg version="1.1" id="Layer_1" xmlns="http://www.w3.org/2000/svg" xmlns:xlink="http://www.w3.org/1999/xlink" x="0px" y="0px"
	 width="2816px" height="1792px" viewBox="64 -448 2816 1792" enable-background="new 64 -448 2816 1792" xml:space="preserve">
<g id="Guides">
</g>
<path d="M2689.6-448.1H254.2c-105.1,0-190.3,81.9-190.3,182.9v1426.3c0,101,85.2,182.9,190.3,182.9h2435.5
	c105.1,0,190.3-81.9,190.3-182.9V-265.2C2879.9-366.2,2794.8-448.1,2689.6-448.1z M2754.1,1064.4c0,110.9-40.2,150.6-150.6,150.6
	c-150.8-0.3-1754.2-1-2263.1-1c-107.4,0-150.6-44.3-150.6-150.6c-0.3-34.4-0.3-34.4-0.3-87.3C512.8,719.7,981.5,348,981.5,348
	l640.1,376.5l489.5-753c0,0,316.6,219.8,643.7,447C2754.9,758,2754.1,1024.8,2754.1,1064.4z"/>
</svg>
