<?xml version="1.0" encoding="utf-8"?>
<!-- Generator: Adobe Illustrator 18.1.1, SVG Export Plug-In . SVG Version: 6.00 Build 0)  -->
<svg version="1.1" id="Layer_1" xmlns="http://www.w3.org/2000/svg" xmlns:xlink="http://www.w3.org/1999/xlink" x="0px" y="0px"
	 width="2816px" height="1792px" viewBox="64 -448 2816 1792" enable-background="new 64 -448 2816 1792" xml:space="preserve">
<g id="Guides">
</g>
<path id="video_player" d="M2182.8,804.7l201.6,137l-201.6,137L2182.8,804.7L2182.8,804.7z M2880,619.9v641.8
	c0,45.5-38.3,82.3-85.6,82.3h-1096c-47.3,0-85.6-36.9-85.6-82.3V619.9c0-45.5,38.3-82.3,85.6-82.3h1095.9
	C2841.6,537.6,2880,574.4,2880,619.9z M2481.7,940.8c0-130-105.4-235.4-235.4-235.4S2011,810.8,2011,940.8s105.4,235.4,235.4,235.4
	S2481.7,1070.8,2481.7,940.8z"/>
<path d="M1245.6-448H149.6c-47.3,0-85.6,36.9-85.6,82.3v641.8c0,45.5,38.3,82.3,85.6,82.3h1096c47.3,0,85.6-36.9,85.6-82.3v-641.8
	C1331.2-411.1,1292.9-448,1245.6-448z M1274.6,232.6c0,49.9-18.1,67.8-67.8,67.8c-67.9-0.1-789.4-0.4-1018.4-0.4
	c-48.3,0-67.8-19.9-67.8-67.8c-0.1-15.5-0.1-15.5-0.1-39.3C266,77.5,476.9-89.8,476.9-89.8L765,79.7l220.3-338.9
	c0,0,142.5,98.9,289.7,201.1C1274.9,94.7,1274.6,214.8,1274.6,232.6z"/>
<path d="M1245.6,537.6H149.6c-47.3,0-85.6,36.9-85.6,82.3v641.8c0,45.5,38.3,82.3,85.6,82.3h1096c47.3,0,85.6-36.9,85.6-82.3V619.9
	C1331.2,574.4,1292.9,537.6,1245.6,537.6z M477.9,1287.8c0,0-311.6,0-334.8,0c-16.8,0-22.5-10.8-22.5-22.5c0-1.9,0-35.1,0-35.1
	h357.3V1287.8z M477.9,1188.4H120.6v-57.6h357.3L477.9,1188.4L477.9,1188.4z M477.9,1089.1H120.6v-57.6h357.3L477.9,1089.1
	L477.9,1089.1z M477.9,989.8H120.6v-57.6h357.3L477.9,989.8L477.9,989.8z M477.9,890.4H120.6v-57.6h357.3L477.9,890.4L477.9,890.4z
	 M877.5,1287.8h-356v-57.6h356V1287.8z M877.5,1188.4h-356v-57.6h356V1188.4z M877.5,1089.1h-356v-57.6h356V1089.1z M877.5,989.8
	h-356v-57.6h356V989.8z M877.5,890.4h-356v-57.6h356V890.4z M1274.8,1265.2c0,17.5-5.4,22.5-22.5,22.5c-16.7,0-332.6,0-332.6,0
	v-57.6h355.1C1274.8,1230.1,1274.8,1257.5,1274.8,1265.2z M1274.8,1188.4H919.7v-57.6h355.1V1188.4z M1274.8,1089.1H919.7v-57.6
	h355.1V1089.1z M1274.8,989.8H919.7v-57.6h355.1V989.8z M1274.8,890.4H919.7v-57.6h355.1V890.4z"/>
<path d="M2794.4-448h-1096c-47.2,0-85.6,36.9-85.6,82.3v641.8c0,43.1,38.3,82.3,85.6,82.3h1096c47.3,0,85.6-36.9,85.6-82.3v-641.8
	C2880-411.1,2841.7-448,2794.4-448z M2200.2,241.5c0,2.7-2.2,4.9-4.9,4.9h-240.7c-2.7,0-4.9-2.2-4.9-4.9V120.3c0-4.7,3.6-9.8,4-10.3
	c2.6-3,44.3-39.9,63-58.7c37.9,24.8,81.1,23.3,117.9-3.2c18.9,18.9,57.1,56.7,60.8,62.4c0.9,1.4,4.5,5.4,4.7,9.8V241.5L2200.2,241.5
	z M1987-41.4c0-48.5,39.3-87.8,87.8-87.8c48.5,0,87.8,39.3,87.8,87.8s-39.3,87.8-87.8,87.8C2026.3,46.3,1987,7,1987-41.4z M2699,19
	c0,49-39.7,88.7-88.7,88.7c0,0-374.8,0.2-387.6,0.2c-17.1-17.1-56.6-58.6-70.1-72.3c27.7-27.8,38.3-69.4,27.5-107.2
	c-9-31.3-32.4-57.5-62.3-70.2c-32.2-13.6-69.8-10.7-99.6,7.6c-28.3,17.4-47.6,47.7-51.3,80.8c-3.7,33.8,8.7,67.9,33.3,91.3
	c-29.5,29-56.7,53.3-74.2,69.9l-43.3,0c-49,0-88.7-39.7-88.7-88.7v-266.2c0-49,39.7-88.7,88.7-88.7h727.5c49,0,88.7,39.7,88.8,88.7
	L2699,19L2699,19z"/>
</svg>
