<?xml version="1.0" encoding="utf-8"?>
<!-- Generator: Adobe Illustrator 18.1.1, SVG Export Plug-In . SVG Version: 6.00 Build 0)  -->
<svg version="1.1" id="Layer_1" xmlns="http://www.w3.org/2000/svg" xmlns:xlink="http://www.w3.org/1999/xlink" x="0px" y="0px"
	 width="2389.8px" height="1792px" viewBox="-159 -448 2389.8 1792" enable-background="new -159 -448 2389.8 1792"
	 xml:space="preserve">
<g id="Guides">
</g>
<path d="M2081.4,149.1H580.8c-161.2,0-291.7,130.5-291.7,291.7v604.4h-74.7c-41.1,0-74.7-33.4-74.7-74.7V355.1
	C139.7,158.8,298.8-0.2,495-0.2h1437.1v-149.4c0-82.5-66.8-149.4-149.4-149.4H737.2c0-82.6-66.8-149.4-149.4-149.4H139.7
	C57.2-448.3-9.6-381.5-9.6-299v-0.6c-89,51.8-149.4,147-149.4,257.3V970.6c0,206.2,167.2,373.4,373.4,373.4h1717.7
	c165,0,298.7-133.8,298.7-298.7V298.5C2230.8,215.9,2164,149.1,2081.4,149.1z"/>
</svg>
