<?xml version="1.0" encoding="utf-8"?>
<!-- Generator: Adobe Illustrator 18.1.1, SVG Export Plug-In . SVG Version: 6.00 Build 0)  -->
<svg version="1.1" id="Layer_1" xmlns="http://www.w3.org/2000/svg" xmlns:xlink="http://www.w3.org/1999/xlink" x="0px" y="0px"
	 width="2816px" height="1792px" viewBox="64 -448 2816 1792" enable-background="new 64 -448 2816 1792" xml:space="preserve">
<g id="Guides">
</g>
<path id="video_player" d="M1330.8,145.7L1778.9,450l-448.1,304.4L1330.8,145.7L1330.8,145.7z M2880.1-265.2v1426.3
	c0,101-85.2,182.9-190.3,182.9H254.2c-105.1,0-190.3-81.9-190.3-182.9V-265.2c0-101,85.2-182.9,190.3-182.9h2435.4
	C2794.8-448.1,2879.9-366.2,2880.1-265.2z M1995,448c0-288.8-234.2-523-523.1-523s-523,234.2-523,523s234.2,523,523,523
	S1995,736.9,1995,448z"/>
</svg>
