<?xml version="1.0" encoding="utf-8"?>
<!-- Generator: Adobe Illustrator 19.1.0, SVG Export Plug-In . SVG Version: 6.00 Build 0)  -->
<svg version="1.1" id="Layer_1" xmlns="http://www.w3.org/2000/svg" xmlns:xlink="http://www.w3.org/1999/xlink" x="0px" y="0px"
	 viewBox="542 -825 1567.8 1792" style="enable-background:new 542 -825 1567.8 1792;" xml:space="preserve">
<style type="text/css">
	.st0{fill-rule:evenodd;clip-rule:evenodd;}
</style>
<path class="st0" d="M2020.2,967H631.6c-49.5,0-89.6-40.1-89.6-89.6V-511.2c0-49.5,40.1-89.6,89.6-89.6h455.8
	c11.5-125.4,113.2-224,238.5-224s227,98.5,238.5,224h455.8c49.5,0,89.6,40.1,89.6,89.6V877.4C2109.8,926.9,2069.7,967,2020.2,967z
	 M900.3,608.7h582.3V429.5H900.3V608.7z M1796.2-197.6H900.3v179.2h895.9V-197.6z M1796.2,115.9H900.3v179.2h895.9V115.9z
	 M1325.9-701.5c66.5,0,120.4,55.5,120.4,123.9s-53.9,123.9-120.4,123.9c-66.5,0-120.4-55.5-120.4-123.9S1259.4-701.5,1325.9-701.5z"
	/>
</svg>
