<?xml version="1.0" encoding="utf-8"?>
<!-- Generator: Adobe Illustrator 18.1.1, SVG Export Plug-In . SVG Version: 6.00 Build 0)  -->
<svg version="1.1" id="Layer_1" xmlns="http://www.w3.org/2000/svg" xmlns:xlink="http://www.w3.org/1999/xlink" x="0px" y="0px"
	 width="2816px" height="1792px" viewBox="64 -448 2816 1792" enable-background="new 64 -448 2816 1792" xml:space="preserve">
<g id="Layer_1_1_">
	<path d="M2710.1-448H233.9c-93.5,0-170,76.5-170,170v1452.1c0,93.5,76.5,170,170,170h2476.1c93.5,0,170-76.5,170-165V-273
		C2880.1-371.5,2803.6-448,2710.1-448z M1552.9-320c0,0,1099.5,0,1151.2,0c37.3,0,50,24.1,50,50c0,4.2,0,78,0,78H1552.9V-320z
		 M1553.1,654V526h1200.9v128H1553.1z M2753.9,811.2v128H1553.1v-128H2753.9z M1553.1,380v-128h1200.9v128H1553.1z M1397.9,1216.1
		c0,0-1106.5,0-1158.2,0c-37.3,0-50-24.1-50-50c0-4.2,0-78,0-78h1208.2V1216.1z M1397.9,812v128H189.9V812H1397.9z M189.9,654V526
		h1207.9v128H189.9z M1397.9,378H189.7c0,0,0-645.8,0-650c0-25.9,12.7-50,50-50c51.7,0,1158.2,0,1158.2,0L1397.9,378L1397.9,378z
		 M2754.1,1166.1c0,25.9-12.7,50-50,50c-51.7,0-1151.2,0-1151.2,0v-128h1201.2C2754.1,1088.1,2754.1,1161.9,2754.1,1166.1z
		 M2754.9,95.1H1554.1v-128h1200.9V95.1z"/>
</g>
<g id="Layer_2">
</g>
</svg>
