<?xml version="1.0" encoding="utf-8"?>
<!-- Generator: Adobe Illustrator 18.1.1, SVG Export Plug-In . SVG Version: 6.00 Build 0)  -->
<svg version="1.1" id="Layer_1" xmlns="http://www.w3.org/2000/svg" xmlns:xlink="http://www.w3.org/1999/xlink" x="0px" y="0px"
	 width="2816px" height="1792px" viewBox="64 -448 2816 1792" enable-background="new 64 -448 2816 1792" xml:space="preserve">
<g id="Guides">
</g>
<path d="M2689.7-448.1H254.1c-105,0-190.2,81.9-190.2,182.9v1426.3c0,95.7,85.2,182.9,190.3,182.9h2435.5
	c105.1,0,190.3-81.9,190.3-182.9V-265.2C2879.9-366.2,2794.9-448.1,2689.7-448.1z M1369.4,1084.2c0,6-4.9,10.9-10.9,10.9H823.6
	c-6,0-10.9-4.9-10.9-10.9V814.7c0-10.5,8-21.8,8.9-22.8c5.8-6.7,98.5-88.6,140.1-130.5c84.2,55.1,180.3,51.8,262-7.2
	c41.9,42.1,127,126.1,135.2,138.7c2.1,3.2,9.9,12,10.5,21.8V1084.2z M895.6,455.4c0-107.7,87.3-195,195-195
	c107.7,0,195,87.3,195,195s-87.3,195-195,195S895.6,563.1,895.6,455.4z M2477.7,589.7c0,108.9-88.3,197.2-197.2,197.2
	c0,0-832.8,0.4-861.3,0.4c-38.1-37.9-125.7-130.2-155.8-160.7c61.5-61.8,85.2-154.3,61.1-238.2c-20.1-69.6-71.9-127.8-138.5-156
	c-71.6-30.3-155.2-23.8-221.4,16.8c-63,38.7-105.8,106-113.9,179.6c-8.3,75,19.4,150.9,74.1,202.9
	C859.2,696.2,798.9,750.2,760,787.1l-96.3-0.1c-108.9,0-197.2-88.3-197.2-197.2V-1.8c0-108.9,88.3-197.2,197.2-197.2h1616.6
	c108.9,0,197.2,88.3,197.3,197.2L2477.7,589.7L2477.7,589.7z"/>
</svg>
