<?xml version="1.0" encoding="utf-8"?>
<!-- Generator: Adobe Illustrator 18.1.1, SVG Export Plug-In . SVG Version: 6.00 Build 0)  -->
<svg version="1.1" id="Layer_1" xmlns="http://www.w3.org/2000/svg" xmlns:xlink="http://www.w3.org/1999/xlink" x="0px" y="0px"
	 width="2816px" height="1792px" viewBox="64 -448 2816 1792" enable-background="new 64 -448 2816 1792" xml:space="preserve">
<g id="Guides">
</g>
<path d="M2689.6-448.1H254.1c-105,0-190.2,81.9-190.2,182.9v1426.3c0,101,85.2,182.9,190.3,182.9h2435.5
	c105.1,0,190.3-81.9,190.3-182.9V-265.1C2879.8-366.1,2794.8-448.1,2689.6-448.1z M2497.2,1103.6c-51.8,14.4-97.1,48.3-125.3,94.3
	c-28.5-46.2-74.2-80.6-126.9-94.8c25.4-43.2,72.3-72.2,126-72.2C2424.8,1031,2471.9,1060.2,2497.2,1103.6z M2766.8,1156.6
	c-6.8,12.2-23.8,26.2-33.2,41.3c-28.5-46.2-74.2-80.6-126.9-94.8c25.4-43.2,72.3-72.2,126-72.2c18.8,0,36.9,3.6,53.4,10.1
	C2786.4,1055.4,2792.9,1108.7,2766.8,1156.6z M157.5,1041.1c16.5-6.5,34.5-10.1,53.4-10.1c53.7,0,100.6,29,126,72.2
	c-52.7,14.2-98.4,48.6-126.9,94.8c-9.3-15.2-26.3-28.9-33.2-41.3C150.6,1108.7,157.1,1055.4,157.5,1041.1z M465.9,28.2
	c0-108.9,88.2-197.2,197.2-197.2h1616.6c108.9,0,197.2,88.3,197.3,197.2v451.5c0,108.9-88.3,197.2-197.2,197.2H663.1
	c-108.9,0-197.2-88.3-197.2-197.2V28.2z M2135.2,1103.6c-51.8,14.4-97.1,48.3-125.4,94.3c-28.5-46.2-74.2-80.6-126.9-94.8
	c25.4-43.2,72.3-72.2,126-72.2C2062.8,1031,2109.9,1060.2,2135.2,1103.6z M1773.2,1103.6c-51.8,14.4-97.1,48.3-125.4,94.3
	c-28.5-46.2-74.2-80.6-126.9-94.8c25.4-43.2,72.3-72.2,126-72.2C1700.8,1031,1747.9,1060.2,1773.2,1103.6z M1411.2,1103.6
	c-51.8,14.4-97.1,48.3-125.4,94.3c-28.5-46.2-74.2-80.6-126.9-94.8c25.4-43.2,72.3-72.2,126-72.2
	C1338.8,1031,1385.9,1060.2,1411.2,1103.6z M1049.1,1103.6c-51.8,14.4-97.1,48.3-125.3,94.3c-28.5-46.2-74.2-80.6-126.9-94.8
	c25.4-43.2,72.3-72.2,126-72.2C976.8,1031,1023.8,1060.2,1049.1,1103.6z M560.9,1031c53.9,0,100.9,29.2,126.2,72.6
	c-51.8,14.4-97.1,48.3-125.3,94.3c-28.5-46.2-74.2-80.6-126.9-94.8C460.3,1060,507.2,1031,560.9,1031z M600.8,1250.5
	c22.3-52,74-88.5,134.2-88.5c63.6,0,117.6,31.6,137.7,88.3 M965,1250.5c22.3-52,74-88.5,134.2-88.5c63.6,0,117.6,31.6,137.7,88.3
	 M1329.2,1250.5c22.3-52,74-88.5,134.2-88.5c63.6,0,117.6,31.6,137.7,88.3 M1686,1250.5c22.3-52,74-88.5,134.2-88.5
	c63.6,0,117.6,31.6,137.7,88.3 M2045.8,1250.5c22.3-52,74-88.5,134.2-88.5c63.6,0,117.6,31.6,137.7,88.3 M2414.4,1250.5
	c22.3-52,74-88.5,134.2-88.5c58,0,108,26.3,131.6,73.9c-3.4,1.7-34.8,12.8-55.4,14.4C2613.6,1251,2414.4,1250.5,2414.4,1250.5z
	 M307.3,1250.3c-22.1-2-52-12.7-55.4-14.4c23.6-47.6,73.6-73.9,131.6-73.9c60.2,0,111.9,36.4,134.2,88.5
	C517.7,1250.5,318.6,1251,307.3,1250.3z"/>
</svg>
