<?xml version="1.0" encoding="utf-8"?>
<!-- Generator: Adobe Illustrator 18.1.1, SVG Export Plug-In . SVG Version: 6.00 Build 0)  -->
<svg version="1.1" id="Layer_1" xmlns="http://www.w3.org/2000/svg" xmlns:xlink="http://www.w3.org/1999/xlink" x="0px" y="0px"
	 width="2816px" height="1792px" viewBox="64 -448 2816 1792" enable-background="new 64 -448 2816 1792" xml:space="preserve">
<path d="M2710.2-448H233.9c-93.5,0-170,76.5-170,170v1452.1c0,93.5,76.5,170,170,170h2476.1c93.5,0,170-76.5,170-165V-273
	C2880.2-371.5,2803.7-448,2710.2-448z M2064.9,1037.9c-422.3,64.9-691.6,90.8-1240.4,0c-31.8-224,0-353.7,0-353.7l644.9,303.2
	l595.4-303.1C2064.9,684.4,2081.1,805.6,2064.9,1037.9z M1469.6,886.4L236.1,315.6l1233.4-513.8L2703,315.6L1469.6,886.4z"/>
</svg>
