<?xml version="1.0" encoding="utf-8"?>
<!-- Generator: Adobe Illustrator 18.1.1, SVG Export Plug-In . SVG Version: 6.00 Build 0)  -->
<svg version="1.1" id="Layer_1" xmlns="http://www.w3.org/2000/svg" xmlns:xlink="http://www.w3.org/1999/xlink" x="0px" y="0px"
	 width="2048.1px" height="1792px" viewBox="-319 -448 2048.1 1792" enable-background="new -319 -448 2048.1 1792"
	 xml:space="preserve">
<g id="Guides">
</g>
<g id="Glyphs">
	<g id="Video_Player" display="none">
		<g display="inline">
			<polygon points="557.4,710.4 941.2,449.7 557.4,189 			"/>
			<path d="M1896-448.1H-539.4c-105.1,0-190.3,81.9-190.3,182.9v1426.3c0,101,85.2,182.9,190.3,182.9H1896
				c105.1,0,190.3-81.9,190.3-182.9V-265.2C2086.3-366.2,2001.1-448.1,1896-448.1z M678.3,896c-247.4,0-448-200.6-448-448
				S430.9,0,678.3,0s448,200.6,448,448S925.7,896,678.3,896z"/>
		</g>
	</g>
	<g id="Timer" display="none">
		<g display="inline">
			<g>
				<path d="M756.3,639.7l247.4-410.6L593,476.6L756.3,639.7z M790.2-213.5v-8.9h112c61.9,0,112.1-50.1,112.1-112
					c0-61.8-50.1-112-112.1-112H454.1c-61.9,0-112,50.2-112,112c0,61.9,50.1,112,112,112h112v8.9C186.3-159-106,166.7-106,561.6
					c0,433,351,784,784.1,784s784.1-351,784.1-784C1462.3,166.7,1170-159,790.2-213.5z M678.1,1121.6
					c-309.4,0-560.1-250.7-560.1-560s250.7-560,560.1-560s560.1,250.7,560.1,560S987.5,1121.6,678.1,1121.6z"/>
			</g>
		</g>
	</g>
	<g id="Folder" display="none">
		<path display="inline" d="M1836.6,150.7H347.1c-160,0-289.5,130.7-289.5,292.3v605.7h-74.1c-40.8,0-74.1-33.5-74.1-74.8V279.3
			C-90.7,82.7,67.3,1,262,1h1426.3v-149.7c0-82.7-66.3-149.7-148.3-149.7H502.4C502.4-381,436-448,354.1-448H-90.7
			c-81.9,0-148.2,67-148.2,149.7v-0.6C-327.2-247-387.2-151.6-387.2-41.1v1015c0,206.6,165.9,374.1,370.6,374.1h1704.9
			c163.7,0,296.5-134,296.5-299.3V300.4C1984.8,217.6,1918.5,150.7,1836.6,150.7z"/>
	</g>
	<g id="Calendar" display="none">
		<g display="inline">
			<g>
				<path d="M219.3,602.5h108.2c59.8,0,108.1-55.3,108.1-123.6s-48.4-123.6-108.1-123.6H219.3c-59.8,0-108.1,55.3-108.1,123.6
					C111.1,547.2,159.5,602.5,219.3,602.5z M976.2,602.5h108.2c59.8,0,108.1-55.3,108.1-123.6s-48.4-123.6-108.1-123.6H976.2
					c-59.8,0-108.1,55.3-108.1,123.6S916.4,602.5,976.2,602.5z M976.2,973.3h108.2c59.8,0,108.1-55.3,108.1-123.6
					c0-68.3-48.4-123.6-108.1-123.6H976.2c-59.8,0-108.1,55.3-108.1,123.6S916.4,973.3,976.2,973.3z M219.3,973.3h108.2
					c59.8,0,108.1-55.3,108.1-123.6c0-68.3-48.4-123.6-108.1-123.6H219.3c-59.8,0-108.1,55.3-108.1,123.6
					C111.1,918,159.5,973.3,219.3,973.3z M1317.1-262.6h-124.6v61.8c0,102.3-72.7,185.4-162.2,185.4c-89.6,0-162.2-83.1-162.2-185.4
					v-61.8H435.5v61.8c0,102.3-72.7,185.4-162.2,185.4c-89.6,0-162.2-83.1-162.2-185.4v-61.8H-13.5
					c-116.7,0-199.8,101.6-199.8,247.2v1235.8c0,68.3,48.4,123.6,108.1,123.6h1513.9c59.8,0,108.1-55.3,108.1-123.6V-15.4
					C1516.9-153.3,1420.3-262.6,1317.1-262.6z M1300.6,1096.8H3V231.7h1297.7L1300.6,1096.8L1300.6,1096.8z M587.6,602.5h108.1
					c59.8,0,108.1-55.3,108.1-123.6s-48.3-123.6-108.1-123.6H587.6c-59.8,0-108.2,55.3-108.2,123.6
					C479.5,547.2,527.8,602.5,587.6,602.5z M587.6,973.3h108.1c59.8,0,108.1-55.3,108.1-123.6c0-68.3-48.3-123.6-108.1-123.6H587.6
					c-59.8,0-108.2,55.3-108.2,123.6C479.5,918,527.8,973.3,587.6,973.3z M273.3-77.2c59.8,0,108.1-55.3,108.1-123.6v-123.6
					c0.1-68.3-48.3-123.6-108.1-123.6s-108.1,55.3-108.1,123.6v123.6C165.2-132.5,213.6-77.2,273.3-77.2z M1030.3-77.2
					c59.8,0,108.1-55.3,108.1-123.6v-123.6c0-68.3-48.4-123.6-108.1-123.6c-59.8,0-108.1,55.3-108.1,123.6v123.6
					C922.2-132.5,970.5-77.2,1030.3-77.2z"/>
			</g>
		</g>
	</g>
	<g id="User">
		<path d="M1465,980.7c0,0-152-46.9-398.6-133.7c-2.3-42.9-34.5-100.6-91.3-100.6H969h-73.9L906.9,575
			c122.6-57.6,177.3-147.9,200.6-268.2c17.5-90.3,37.3-192.1,37.3-316.7c0-122.9-32.9-438-443-438c-1.3,0-3,0-4.5,0
			c-2.2,0-4,0-5.8,0C324.4-448,267.2-140.3,267.2-10c0,78.4,21.2,229.9,37.2,316.7c19.7,106.3,69.8,222.8,200.5,268.2l11.7,171.4
			h-74h-6c-56.9,0-88.2,61.7-91.4,104.6C106.6,941.7-81.3,992.6-81.3,992.6c-178.5,69.3-232.6,23.9-237.7,114.2v70.2v84l3.1,22
			c3.1,11.9,9,22,16.1,31.2c10.2,13.4,23.8,21.9,39.9,26.3c6,1.5,12,3.4,18.6,3.4l0,0H1649c22,0,40.9-9.6,54.7-25.4
			c20.8-19.2,25.4-57.5,25.4-57.5v-84c0,0,0-46,0-63.5c0-2.5-1.2-11-2.8-16.3C1706.8,1034.3,1653.5,1065.4,1465,980.7z"/>
	</g>
</g>
</svg>
